<?xml version="1.0" encoding="utf-8"?>
<!-- Generator: Adobe Illustrator 25.1.0, SVG Export Plug-In . SVG Version: 6.00 Build 0)  -->
<svg version="1.1" xmlns="http://www.w3.org/2000/svg" xmlns:xlink="http://www.w3.org/1999/xlink" x="0px" y="0px"
	 viewBox="0 0 26.6 22.6" style="enable-background:new 0 0 26.6 22.6;" xml:space="preserve">
<style type="text/css">
	.st0{fill:#FFFFFF;}
	.st1{fill:#464646;}
	.st2{fill:#DAB38D;}
	.st3{fill:#91DC1E;}
	.st4{fill:#BEEB3C;}
	.st5{fill:#FF5F00;}
	.st6{fill:#AFEB1E;}
	.st7{fill:#3D4543;}
	.st8{display:none;}
	.st9{display:inline;}
	.st10{display:inline;fill:#DAB38D;}
	.st11{fill:#FFCE00;}
	.st12{display:inline;fill:#60A008;}
</style>
<g id="Icon">
</g>
<g id="Round">
</g>
<g id="Layer_5" class="st8">
</g>
<g id="Layer_6" class="st8">
</g>
<g id="Layer_7">
	<g id="XMLID_39691_">
		<circle class="st0" cx="13.3" cy="11.3" r="10.2"/>
		<path id="XMLID_39722_" class="st1" d="M13.3,22C7.4,22,2.6,17.2,2.6,11.3c0-5.9,4.8-10.7,10.7-10.7C19.2,0.6,24,5.4,24,11.3
			C24,17.2,19.2,22,13.3,22z M13.3,1.3c-5.5,0-10,4.5-10,10s4.5,10,10,10s10-4.5,10-10S18.8,1.3,13.3,1.3z"/>
		<path id="XMLID_39719_" class="st2" d="M13.3,0.3c6.1,0,11,4.9,11,11c0,6.1-4.9,11-11,11c-6.1,0-11-4.9-11-11
			C2.3,5.2,7.2,0.3,13.3,0.3 M13.3,0C7.1,0,2,5.1,2,11.3s5.1,11.3,11.3,11.3s11.3-5.1,11.3-11.3S19.5,0,13.3,0L13.3,0z"/>
		<g id="XMLID_39712_">
			<path id="XMLID_39716_" class="st3" d="M4.7,4.9C4.7,4.9,4.7,4.9,4.7,4.9C4.7,4.9,4.7,4.9,4.7,4.9z M8.1,14
				c0-0.1,0.3-0.5,0.8-1.1c0.2-0.3,0.5-0.7,0.8-1.1c0.3-0.4,0.6-0.9,0.8-1.4c0.2-0.5,0.4-1,0.5-1.5c0.1-0.5,0.2-1,0.4-1.4
				c0.1-0.2,0.2-0.4,0.3-0.5c0-0.1,0.1-0.1,0.1-0.2c0,0-0.1,0.1-0.1,0.2c-0.1,0.1-0.3,0.3-0.4,0.5C11,7.8,10.8,8,10.6,8.2
				C10.2,8.8,9.8,9.4,9.2,10c-0.3,0.3-0.5,0.7-0.8,1c-0.1,0.2-0.3,0.3-0.4,0.5l-0.2,0.3L7.7,12c-0.3,0.4-0.5,0.7-0.7,1.1
				c-0.1,0.2-0.2,0.4-0.3,0.6c-0.1,0.2-0.2,0.4-0.3,0.6c-0.1,0.2-0.2,0.4-0.3,0.5C6,15,6,15.2,5.9,15.3c-0.1,0.3-0.3,0.7-0.4,1
				c-0.2,0.6-0.3,1.2-0.4,1.5C5.1,18,5,18.2,5,18.3c0,0.1,0,0.2,0,0.2l0,0c0,0,0-0.1,0-0.2C5,18.2,5,18,5,17.8
				c0.1-0.4,0.2-0.9,0.3-1.6c0.1-0.3,0.2-0.7,0.3-1c0.1-0.4,0.3-0.7,0.5-1.1c0.1-0.2,0.2-0.4,0.3-0.6c0.1-0.2,0.2-0.4,0.3-0.6
				c0.2-0.4,0.4-0.8,0.7-1.1l0.2-0.3l0.2-0.3c0.1-0.2,0.2-0.4,0.4-0.6c0.3-0.4,0.5-0.7,0.8-1c0.3-0.3,0.5-0.6,0.8-0.9
				c0.2-0.3,0.5-0.5,0.7-0.8c0.2-0.2,0.4-0.5,0.6-0.6c0.2-0.2,0.4-0.3,0.5-0.5c0.1-0.1,0.3-0.2,0.4-0.3l0,0c0,0,0,0,0,0
				c-0.1,0-0.1,0.1-0.2,0.1c-0.3,0.2-0.7,0.4-1.2,0.6c-0.3,0.1-0.5,0.3-0.8,0.4C9.3,7.9,9,8.1,8.7,8.3C8.5,8.4,8.4,8.5,8.2,8.6
				C8.1,8.7,8,8.8,7.8,9C7.5,9.2,7.3,9.5,7,9.7c-0.3,0.3-0.5,0.5-0.8,0.8c-0.3,0.3-0.5,0.5-0.7,0.8c-0.2,0.3-0.4,0.5-0.6,0.8
				c-0.2,0.3-0.4,0.5-0.5,0.8c0,0.1-0.1,0.1-0.1,0.2c0,0.1-0.1,0.1-0.1,0.2C4,13.4,4,13.5,3.9,13.6c-0.1,0.2-0.2,0.4-0.2,0.6
				c-0.1,0.2-0.1,0.3-0.1,0.4c0,0.1,0,0.1,0,0.1c0,0,0-0.1,0-0.1c0-0.1,0.1-0.2,0.1-0.4c0-0.2,0.1-0.3,0.2-0.6
				c0-0.1,0.1-0.2,0.1-0.3c0-0.1,0.1-0.1,0.1-0.2c0-0.1,0.1-0.1,0.1-0.2c0.1-0.3,0.3-0.5,0.5-0.8c0.2-0.3,0.4-0.5,0.6-0.8
				c0.2-0.3,0.5-0.6,0.7-0.8c0.3-0.3,0.5-0.5,0.8-0.8c0.3-0.3,0.5-0.5,0.8-0.8C7.9,8.7,8,8.6,8.1,8.5c0.1-0.1,0.3-0.2,0.4-0.3
				c0.3-0.2,0.6-0.4,0.9-0.6c0.3-0.2,0.6-0.3,0.8-0.5c0.5-0.3,0.9-0.5,1.2-0.6c0.1,0,0.1-0.1,0.2-0.1c0,0,0,0,0-0.1c0,0,0,0,0-0.1
				c-0.4,0-0.8,0-1.4,0.1c-0.3,0-0.6,0.1-1,0.2c-0.3,0.1-0.7,0.2-1,0.3C8.1,7,8,7,7.9,7c-0.1,0-0.2,0.1-0.3,0.1
				C7.5,7.2,7.3,7.3,7.1,7.4C6.8,7.6,6.4,7.8,6.1,8c-0.7,0.4-1.4,0.9-2,1.4C3.5,9.8,3,10.3,2.5,10.7c-0.4,0.4-0.8,0.8-1,1.1
				c-0.1,0.1-0.2,0.3-0.3,0.3c-0.1,0.1-0.1,0.1-0.1,0.1l0,0c0,0,0,0,0.1-0.1c0-0.1,0.1-0.2,0.2-0.4c0.2-0.3,0.5-0.7,1-1.2
				c0.4-0.5,0.9-1,1.5-1.5c0.6-0.5,1.2-1,1.9-1.5C6.2,7.4,6.5,7.2,6.9,7c0.2-0.1,0.4-0.2,0.6-0.3c0.1,0,0.2-0.1,0.3-0.1
				c0.1,0,0.2-0.1,0.3-0.1c0.4-0.1,0.7-0.2,1.1-0.3c0.4-0.1,0.7-0.1,1-0.1c0.6,0,1,0,1.4,0.1c0-0.1,0-0.2,0-0.2
				c-0.1-0.1-0.4-0.3-0.6-0.5c-0.1-0.1-0.3-0.2-0.5-0.3C10.2,4.9,10,4.9,9.8,4.8c-0.1,0-0.2-0.1-0.3-0.1c-0.1,0-0.2-0.1-0.3-0.1
				c-0.2,0-0.5-0.1-0.7-0.1c-0.5,0-1,0-1.4,0c-0.4,0-0.9,0.1-1.2,0.1C5.5,4.7,5.2,4.8,5,4.8c-0.1,0-0.2,0.1-0.3,0.1
				c0,0,0.1,0,0.3-0.1c0.2-0.1,0.5-0.1,0.8-0.2C6.2,4.5,6.6,4.5,7,4.4c0.4,0,0.9-0.1,1.4-0.1c0.2,0,0.5,0,0.7,0.1
				c0.1,0,0.2,0,0.4,0.1c0.1,0,0.2,0.1,0.3,0.1c0.2,0.1,0.4,0.2,0.6,0.3C10.6,5,10.8,5.1,11,5.2c0.2,0.1,0.4,0.3,0.5,0.4
				c0-0.4,0.1-0.8,0.2-1c0.1-0.3,0.3-0.7-0.4-1.6c-0.6-0.8-0.8-0.8-2.6-0.8c-0.3,0-0.6,0-0.9,0c-2.7,0-6.4,3.8-7,8.3
				c-0.7,4.8,4.2,9,4.2,9c0,0,0,0,0,0c0,0,0.1-0.1,0.1-0.1c0.1-0.1,0.2-0.3,0.3-0.4c0.1-0.1,0.2-0.2,0.3-0.3c0.6-0.7,1.8-2,2.3-3.2
				c0.6-1.2,1.3-1.3,2.1-1.5c0.2,0,0.5-0.1,0.7-0.1c0.1,0,0.2-0.1,0.4-0.1c1.1-0.3,2.9-0.7,3.7-1.6c0.9-0.9,0.8-2.5,0.8-3
				c0-0.5,0.2-0.9,0.5-1.2c0.1-0.2,0.3-0.3,0.4-0.6c0.4-0.6,0.7-1.9,0.8-2.8c0.1-0.6-0.3-0.9-1.5-1.2c-0.1,0-0.2,0-0.3,0
				c-0.7,0-1.6,0.4-2.6,1.2c-0.4,0.3-0.4,1-0.4,1.4c0.1,0,0.1-0.1,0.2-0.1c0.2-0.1,0.5-0.2,0.7-0.2c0.1,0,0.3,0,0.4,0
				c0.1,0,0.3,0,0.4,0.1c0.3,0.1,0.5,0.3,0.7,0.5c0.1,0.1,0.2,0.2,0.2,0.3c0.1,0.1,0.1,0.2,0.1,0.3c0,0.1,0.1,0.2,0.1,0.3
				c0,0.1,0,0.2,0,0.2c0,0.1,0,0.2,0,0.2l0,0c0,0,0-0.1-0.1-0.2c0-0.1,0-0.1-0.1-0.2c0-0.1-0.1-0.2-0.1-0.3c0-0.1-0.1-0.2-0.2-0.3
				c-0.1-0.1-0.1-0.2-0.2-0.3c-0.2-0.2-0.4-0.3-0.6-0.4c-0.1,0-0.2,0-0.4,0c-0.1,0-0.3,0-0.4,0c-0.3,0-0.5,0-0.7,0.1
				c-0.1,0-0.2,0.1-0.2,0.1c0,0.2-0.1,0.3-0.1,0.3c0,0,0,0,0,0c0.1,0.1,0.2,0.3,0.3,0.5c0.1,0.2,0.2,0.4,0.3,0.6
				c0.1,0.1,0.1,0.2,0.1,0.3c0,0.1,0,0.1,0.1,0.2c0,0.1,0,0.1,0,0.2c0.1,0.3,0.1,0.5,0.1,0.7c0,0.5-0.1,1-0.2,1.4
				c-0.1,0.4-0.2,0.8-0.4,1.2c-0.1,0.3-0.3,0.6-0.3,0.8c-0.1,0.2-0.2,0.3-0.2,0.3l0,0c0,0,0-0.1,0.1-0.3c0.1-0.2,0.2-0.5,0.2-0.8
				c0.1-0.3,0.2-0.7,0.2-1.2c0.1-0.4,0.1-0.9,0-1.3c0-0.2-0.1-0.4-0.1-0.6c0-0.1,0-0.1,0-0.2c0,0,0-0.1,0-0.1c0-0.1-0.1-0.2-0.1-0.3
				c-0.1-0.2-0.2-0.4-0.2-0.6c-0.1-0.2-0.2-0.3-0.3-0.5c0,0,0-0.1,0-0.1c0,0,0,0-0.1,0c0,0,0,0,0,0C12,6.9,11.9,7,11.9,7.1
				c-0.1,0.1-0.2,0.3-0.3,0.5c-0.2,0.4-0.3,0.8-0.4,1.3c-0.1,0.5-0.3,1-0.5,1.5c-0.2,0.5-0.5,1-0.9,1.4c-0.2,0.2-0.3,0.4-0.5,0.6
				c-0.2,0.2-0.3,0.4-0.4,0.5C8.4,13.5,8.1,14,8.1,14z"/>
			<path id="XMLID_39713_" class="st1" d="M16,2.9c-1.2-0.3-2.7,0.7-3.4,1.3c-0.1,0.1-0.3,0.3-0.3,0.4c0.1-0.4,0.3-1-0.5-2.1
				c-0.8-1-1.2-1-3.1-1c-0.3,0-0.6,0-0.9,0c-2.9,0-7,3.9-7.6,8.8C-0.6,15,3.6,19.3,4.5,20c0.1,0,0.2,0.2,0.4,0.2c0,0,0.1,0,0.1,0
				c0.2,0,0.4-0.3,0.5-0.5c0.1-0.1,0.1-0.2,0.2-0.3C5.8,19.3,5.9,19.2,6,19c0.6-0.7,1.9-2.1,2.4-3.3c0.4-0.9,0.9-1,1.7-1.1
				c0.2,0,0.5-0.1,0.8-0.1c0.1,0,0.2-0.1,0.4-0.1c1.2-0.3,3.1-0.8,4-1.7c1.1-1.1,1-2.8,1-3.4c0-0.3,0.1-0.5,0.4-0.8
				c0.1-0.2,0.3-0.4,0.5-0.7c0.4-0.7,0.8-2,0.9-3C18.1,3.5,16.9,3.2,16,2.9z M17.4,4.7c-0.1,0.9-0.5,2.1-0.8,2.8
				c-0.1,0.2-0.3,0.4-0.4,0.6c-0.3,0.3-0.5,0.7-0.5,1.2c0,0.5,0.1,2-0.8,3c-0.8,0.8-2.6,1.3-3.7,1.6c-0.1,0-0.2,0.1-0.4,0.1
				C10.5,13.9,10.3,14,10,14c-0.8,0.1-1.6,0.2-2.1,1.5c-0.5,1.1-1.7,2.5-2.3,3.2c-0.1,0.1-0.2,0.2-0.3,0.3c-0.1,0.1-0.2,0.3-0.3,0.4
				c0,0-0.1,0.1-0.1,0.1c0,0,0,0,0,0c0,0-4.9-4.2-4.2-9C1.3,6,5,2.2,7.7,2.2c0.3,0,0.6,0,0.9,0c1.9,0,2,0,2.6,0.8
				c0.7,0.9,0.5,1.3,0.4,1.6c-0.1,0.2-0.1,0.6-0.2,1c-0.1-0.1-0.3-0.3-0.5-0.4c-0.2-0.1-0.3-0.2-0.5-0.3c-0.2-0.1-0.4-0.2-0.6-0.3
				c-0.1,0-0.2-0.1-0.3-0.1c-0.1,0-0.2-0.1-0.4-0.1c-0.2,0-0.5-0.1-0.7-0.1c-0.5,0-1,0-1.4,0.1c-0.4,0-0.9,0.1-1.2,0.2
				C5.5,4.7,5.2,4.7,5,4.8c-0.1,0-0.2,0.1-0.3,0.1c0,0,0.1,0,0.3-0.1c0.2,0,0.5-0.1,0.9-0.2C6.2,4.6,6.6,4.5,7,4.5
				c0.4,0,0.9,0,1.4,0c0.2,0,0.5,0,0.7,0.1c0.1,0,0.2,0,0.3,0.1c0.1,0,0.2,0.1,0.3,0.1C10,4.9,10.2,4.9,10.4,5
				c0.2,0.1,0.3,0.2,0.5,0.3c0.3,0.2,0.5,0.4,0.6,0.5c0,0.1,0,0.2,0,0.2C11.2,6,10.7,6,10.1,6c-0.3,0-0.7,0.1-1,0.1
				C8.8,6.2,8.4,6.3,8,6.5c-0.1,0-0.2,0.1-0.3,0.1c-0.1,0-0.2,0.1-0.3,0.1C7.3,6.8,7.1,6.9,6.9,7C6.5,7.2,6.2,7.4,5.8,7.6
				c-0.7,0.5-1.3,1-1.9,1.5c-0.6,0.5-1.1,1-1.5,1.5c-0.4,0.5-0.7,0.9-1,1.2c-0.1,0.1-0.2,0.3-0.2,0.4c0,0.1-0.1,0.1-0.1,0.1l0,0
				c0,0,0,0,0.1-0.1c0.1-0.1,0.1-0.2,0.3-0.3c0.2-0.3,0.6-0.7,1-1.1c0.4-0.4,1-0.9,1.6-1.4c0.6-0.5,1.3-0.9,2-1.4
				c0.3-0.2,0.7-0.4,1.1-0.6c0.2-0.1,0.4-0.2,0.5-0.2c0.1,0,0.2-0.1,0.3-0.1C8,7,8.1,7,8.2,6.9c0.4-0.1,0.7-0.2,1-0.3
				c0.3-0.1,0.7-0.2,1-0.2c0.6-0.1,1.1-0.1,1.4-0.1c0,0,0,0.1,0,0.1c0,0,0,0,0,0.1c0,0-0.1,0.1-0.2,0.1c-0.3,0.2-0.7,0.4-1.2,0.6
				C10,7.3,9.7,7.4,9.5,7.6C9.2,7.8,8.9,7.9,8.6,8.2C8.4,8.3,8.3,8.4,8.1,8.5C8,8.6,7.9,8.7,7.7,8.8C7.4,9.1,7.2,9.4,6.9,9.6
				c-0.3,0.3-0.5,0.5-0.8,0.8c-0.3,0.3-0.5,0.6-0.7,0.8c-0.2,0.3-0.4,0.6-0.6,0.8c-0.2,0.3-0.3,0.5-0.5,0.8c0,0.1-0.1,0.1-0.1,0.2
				c0,0.1-0.1,0.1-0.1,0.2C4,13.4,4,13.5,3.9,13.6c-0.1,0.2-0.2,0.4-0.2,0.6c-0.1,0.2-0.1,0.3-0.1,0.4c0,0.1,0,0.1,0,0.1
				c0,0,0-0.1,0-0.1c0-0.1,0.1-0.2,0.1-0.4c0.1-0.2,0.1-0.3,0.2-0.6c0-0.1,0.1-0.2,0.2-0.3c0-0.1,0.1-0.1,0.1-0.2
				c0-0.1,0.1-0.1,0.1-0.2c0.1-0.3,0.3-0.5,0.5-0.8c0.2-0.3,0.4-0.5,0.6-0.8c0.2-0.3,0.5-0.5,0.7-0.8C6.4,10.3,6.7,10,7,9.7
				C7.3,9.5,7.5,9.2,7.8,9C8,8.8,8.1,8.7,8.2,8.6c0.1-0.1,0.3-0.2,0.4-0.3C9,8.1,9.3,7.9,9.5,7.8c0.3-0.2,0.6-0.3,0.8-0.4
				c0.5-0.3,0.9-0.4,1.2-0.6c0.1,0,0.2-0.1,0.2-0.1c0,0,0,0,0,0l0,0c-0.1,0.1-0.2,0.2-0.4,0.3C11.4,7,11.2,7.2,11,7.4
				c-0.2,0.2-0.4,0.4-0.6,0.6c-0.2,0.2-0.5,0.5-0.7,0.8C9.4,9.1,9.1,9.4,8.9,9.7c-0.3,0.3-0.5,0.7-0.8,1c-0.1,0.2-0.2,0.4-0.4,0.6
				l-0.2,0.3l-0.2,0.3c-0.2,0.4-0.5,0.8-0.7,1.1c-0.1,0.2-0.2,0.4-0.3,0.6c-0.1,0.2-0.2,0.4-0.3,0.6c-0.2,0.4-0.3,0.8-0.5,1.1
				c-0.1,0.4-0.2,0.7-0.3,1c-0.2,0.6-0.3,1.2-0.3,1.6C5,18,5,18.2,5,18.3c0,0.1,0,0.2,0,0.2l0,0c0,0,0-0.1,0-0.2
				c0-0.1,0-0.2,0.1-0.4c0.1-0.4,0.2-0.9,0.4-1.5c0.1-0.3,0.2-0.6,0.4-1C6,15.2,6,15,6.1,14.8c0.1-0.2,0.2-0.4,0.3-0.5
				c0.1-0.2,0.2-0.4,0.3-0.6c0.1-0.2,0.2-0.4,0.3-0.6c0.2-0.4,0.4-0.7,0.7-1.1l0.2-0.3l0.2-0.3c0.1-0.2,0.3-0.3,0.4-0.5
				c0.3-0.3,0.5-0.7,0.8-1c0.5-0.6,1-1.2,1.4-1.8C10.8,8,11,7.8,11.2,7.5c0.2-0.2,0.3-0.4,0.4-0.5c0-0.1,0.1-0.1,0.1-0.2
				c0,0-0.1,0.1-0.1,0.2c-0.1,0.1-0.2,0.3-0.3,0.5c-0.2,0.4-0.2,0.9-0.4,1.4c-0.1,0.5-0.3,1-0.5,1.5c-0.2,0.5-0.5,1-0.8,1.4
				c-0.3,0.4-0.6,0.8-0.8,1.1C8.4,13.5,8.1,14,8.1,14c0-0.1,0.3-0.5,0.8-1.1c0.1-0.2,0.3-0.3,0.4-0.5c0.1-0.2,0.3-0.4,0.5-0.6
				c0.3-0.4,0.6-0.9,0.9-1.4c0.2-0.5,0.4-1,0.5-1.5c0.1-0.5,0.2-1,0.4-1.3c0.1-0.2,0.2-0.3,0.3-0.5C11.9,7,12,6.9,12.1,6.8
				c0,0,0,0,0,0c0,0,0,0,0.1,0c0,0,0,0.1,0,0.1c0.1,0.2,0.2,0.3,0.3,0.5c0.1,0.2,0.2,0.4,0.2,0.6c0,0.1,0.1,0.2,0.1,0.3
				c0,0,0,0.1,0,0.1c0,0.1,0,0.1,0,0.2C13,8.7,13,8.9,13,9.1c0.1,0.4,0,0.9,0,1.3c-0.1,0.4-0.1,0.8-0.2,1.2
				c-0.1,0.3-0.2,0.6-0.2,0.8c-0.1,0.2-0.1,0.3-0.1,0.3l0,0c0,0,0.1-0.1,0.2-0.3c0.1-0.2,0.2-0.4,0.3-0.8c0.1-0.3,0.3-0.7,0.4-1.2
				c0.1-0.4,0.2-0.9,0.2-1.4c0-0.2,0-0.5-0.1-0.7c0-0.1,0-0.1,0-0.2c0-0.1,0-0.1-0.1-0.2c0-0.1-0.1-0.2-0.1-0.3
				c-0.1-0.2-0.2-0.4-0.3-0.6c-0.1-0.2-0.2-0.3-0.3-0.5c0,0,0,0,0,0c0.1-0.1,0.1-0.2,0.1-0.3c0.1,0,0.2-0.1,0.2-0.1
				c0.2-0.1,0.4-0.1,0.7-0.1c0.1,0,0.3,0,0.4,0c0.1,0,0.3,0,0.4,0c0.3,0.1,0.5,0.2,0.6,0.4c0.1,0.1,0.2,0.2,0.2,0.3
				c0.1,0.1,0.1,0.2,0.2,0.3c0,0.1,0.1,0.2,0.1,0.3c0,0.1,0.1,0.1,0.1,0.2c0,0.1,0.1,0.2,0.1,0.2l0,0c0,0,0-0.1,0-0.2
				c0-0.1,0-0.1,0-0.2c0-0.1,0-0.2-0.1-0.3c0-0.1-0.1-0.2-0.1-0.3c-0.1-0.1-0.1-0.2-0.2-0.3c-0.2-0.2-0.4-0.4-0.7-0.5
				c-0.1,0-0.3-0.1-0.4-0.1c-0.1,0-0.3,0-0.4,0c-0.3,0-0.5,0.1-0.7,0.2c-0.1,0-0.1,0.1-0.2,0.1c0-0.4,0-1.1,0.4-1.4
				c1-0.8,1.9-1.2,2.6-1.2c0.1,0,0.2,0,0.3,0C17.1,3.9,17.5,4.1,17.4,4.7z"/>
		</g>
		<g id="XMLID_39705_">
			<path id="XMLID_39709_" class="st3" d="M22.2,5.9C22.2,5.9,22.2,5.9,22.2,5.9C22.2,5.9,22.2,5.9,22.2,5.9z M21.7,12.4
				c0,0-0.3-0.3-0.7-0.6c-0.2-0.2-0.5-0.4-0.7-0.6c-0.3-0.2-0.5-0.5-0.8-0.7c-0.2-0.3-0.4-0.6-0.6-0.9c-0.2-0.3-0.3-0.6-0.5-0.8
				c-0.1-0.1-0.2-0.2-0.3-0.3c0,0-0.1-0.1-0.1-0.1c0,0,0.1,0.1,0.1,0.1c0.1,0.1,0.2,0.2,0.4,0.3C18.6,8.9,18.8,9,19,9.1
				c0.4,0.3,0.8,0.6,1.2,0.9c0.2,0.2,0.5,0.3,0.7,0.5c0.1,0.1,0.2,0.2,0.3,0.3l0.2,0.1l0.2,0.1c0.2,0.2,0.4,0.4,0.7,0.6
				c0.1,0.1,0.2,0.2,0.3,0.3c0.1,0.1,0.2,0.2,0.3,0.3c0.1,0.1,0.2,0.2,0.3,0.3c0.1,0.1,0.2,0.2,0.2,0.3c0.2,0.2,0.3,0.4,0.4,0.6
				c0.3,0.4,0.4,0.7,0.6,0.9c0.1,0.1,0.1,0.2,0.1,0.3c0,0.1,0,0.1,0,0.1l0,0c0,0,0,0,0-0.1c0-0.1-0.1-0.2-0.1-0.3
				c-0.1-0.2-0.3-0.6-0.5-0.9c-0.1-0.2-0.2-0.4-0.4-0.6c-0.1-0.2-0.3-0.4-0.5-0.6c-0.1-0.1-0.2-0.2-0.3-0.3
				c-0.1-0.1-0.2-0.2-0.3-0.3c-0.2-0.2-0.4-0.4-0.6-0.6l-0.2-0.2l-0.2-0.1c-0.1-0.1-0.2-0.2-0.3-0.3c-0.2-0.2-0.5-0.4-0.7-0.5
				c-0.2-0.2-0.4-0.3-0.7-0.4c-0.2-0.1-0.4-0.3-0.6-0.4c-0.2-0.1-0.4-0.2-0.5-0.3c-0.2-0.1-0.3-0.2-0.4-0.2
				c-0.1-0.1-0.2-0.1-0.3-0.1l0,0c0,0,0,0,0,0c0,0,0.1,0,0.2,0c0.2,0,0.5,0.1,0.9,0.2c0.2,0,0.4,0.1,0.6,0.1
				c0.2,0.1,0.4,0.1,0.7,0.2c0.1,0,0.2,0.1,0.3,0.1c0.1,0,0.2,0.1,0.3,0.1c0.2,0.1,0.5,0.2,0.7,0.3c0.2,0.1,0.4,0.2,0.7,0.4
				c0.2,0.1,0.4,0.2,0.6,0.4c0.2,0.1,0.4,0.3,0.6,0.4c0.2,0.1,0.3,0.3,0.5,0.4c0,0,0.1,0.1,0.1,0.1c0,0,0.1,0.1,0.1,0.1
				c0.1,0.1,0.1,0.1,0.2,0.2c0.1,0.1,0.2,0.2,0.2,0.3c0.1,0.1,0.1,0.2,0.1,0.2c0,0,0,0.1,0,0.1c0,0,0,0,0-0.1c0-0.1-0.1-0.1-0.1-0.2
				c-0.1-0.1-0.1-0.2-0.2-0.3c0-0.1-0.1-0.1-0.2-0.2c0,0-0.1-0.1-0.1-0.1c0,0-0.1-0.1-0.1-0.1c-0.1-0.1-0.3-0.3-0.5-0.4
				c-0.2-0.1-0.4-0.3-0.6-0.4c-0.2-0.1-0.4-0.3-0.6-0.4c-0.2-0.1-0.4-0.3-0.7-0.4C21.4,9.2,21.2,9.1,21,9c-0.1-0.1-0.2-0.1-0.3-0.2
				c-0.1,0-0.2-0.1-0.3-0.1c-0.2-0.1-0.4-0.1-0.7-0.2c-0.2-0.1-0.4-0.1-0.6-0.1c-0.4-0.1-0.7-0.1-0.9-0.2c-0.1,0-0.1,0-0.1,0
				c0,0,0,0,0,0c0,0,0,0,0-0.1c0.2-0.1,0.5-0.1,0.9-0.2c0.2,0,0.4,0,0.6,0c0.2,0,0.5,0,0.7,0c0.1,0,0.1,0,0.2,0c0.1,0,0.1,0,0.2,0
				c0.1,0,0.3,0,0.4,0.1c0.3,0,0.5,0.1,0.8,0.2c0.5,0.1,1,0.3,1.5,0.5c0.5,0.2,0.9,0.4,1.3,0.6c0.4,0.2,0.7,0.4,0.8,0.5
				c0.1,0.1,0.2,0.1,0.2,0.2c0,0,0.1,0.1,0.1,0.1l0,0c0,0,0,0-0.1-0.1c0,0-0.1-0.1-0.2-0.2c-0.2-0.2-0.5-0.4-0.8-0.6
				c-0.4-0.2-0.8-0.4-1.3-0.7c-0.5-0.2-1-0.4-1.5-0.6c-0.3-0.1-0.5-0.2-0.8-0.2c-0.1,0-0.3-0.1-0.4-0.1c-0.1,0-0.1,0-0.2,0
				c-0.1,0-0.1,0-0.2,0c-0.3,0-0.5,0-0.8,0c-0.2,0-0.5,0.1-0.7,0.1c-0.4,0.1-0.7,0.2-0.9,0.3c0-0.1,0-0.1,0-0.2
				c0.1-0.1,0.2-0.3,0.3-0.5c0.1-0.1,0.2-0.2,0.3-0.3c0.1-0.1,0.2-0.2,0.3-0.3c0.1,0,0.1-0.1,0.2-0.1c0.1,0,0.1-0.1,0.2-0.1
				c0.1-0.1,0.3-0.1,0.4-0.2c0.3-0.1,0.6-0.2,0.9-0.2C20.9,6,21.2,6,21.4,6c0.2,0,0.4,0,0.6-0.1c0.1,0,0.2,0,0.2,0c0,0-0.1,0-0.2,0
				c-0.1,0-0.3,0-0.6,0c-0.2,0-0.5,0.1-0.8,0.1c-0.3,0.1-0.6,0.1-0.9,0.2c-0.2,0-0.3,0.1-0.4,0.2c-0.1,0-0.1,0.1-0.2,0.1
				c-0.1,0-0.1,0.1-0.2,0.1c-0.1,0.1-0.2,0.2-0.3,0.3c-0.1,0.1-0.2,0.2-0.3,0.3c-0.1,0.1-0.2,0.2-0.3,0.3c-0.1-0.2-0.2-0.5-0.3-0.6
				c-0.1-0.2-0.3-0.4,0-1.1c0.2-0.6,0.3-0.6,1.6-1c0.2,0,0.4-0.1,0.6-0.2c1.7-0.5,4.8,1.3,6,4c1.3,2.9-1,6.5-1,6.5c0,0,0,0,0,0
				c0,0-0.1-0.1-0.1-0.1c-0.1-0.1-0.1-0.1-0.3-0.2c-0.1,0-0.1-0.1-0.2-0.2c-0.5-0.3-1.5-1-2.1-1.6c-0.6-0.7-1.1-0.6-1.6-0.5
				c-0.2,0-0.3,0-0.5,0c-0.1,0-0.2,0-0.2,0c-0.8,0-2,0.1-2.7-0.3C16.3,12,16,11,16,10.7c-0.1-0.3-0.3-0.5-0.5-0.7
				C15.3,10,15.2,9.9,15,9.8c-0.3-0.3-0.8-1.1-1-1.6c-0.2-0.4,0-0.6,0.7-1.1c0.1,0,0.1-0.1,0.2-0.1c0.4-0.1,1.1,0,1.9,0.3
				c0.3,0.1,0.5,0.6,0.5,0.8c0,0-0.1,0-0.1,0c-0.1,0-0.3,0-0.5,0c-0.1,0-0.2,0-0.3,0.1c-0.1,0-0.2,0.1-0.3,0.1
				c-0.2,0.1-0.3,0.3-0.4,0.5c0,0.1-0.1,0.2-0.1,0.2c0,0.1,0,0.2,0,0.2c0,0.1,0,0.1,0,0.2c0,0.1,0,0.1,0,0.1c0,0.1,0,0.1,0,0.1l0,0
				c0,0,0,0,0-0.1c0,0,0-0.1,0-0.1c0-0.1,0-0.1,0-0.2c0-0.1,0-0.1,0-0.2c0-0.1,0-0.2,0.1-0.2c0.1-0.2,0.2-0.3,0.3-0.4
				c0.1,0,0.2-0.1,0.2-0.1c0.1,0,0.2-0.1,0.3-0.1c0.2,0,0.3-0.1,0.5-0.1c0.1,0,0.1,0,0.2,0c0,0.1,0.1,0.2,0.1,0.2c0,0,0,0,0,0
				c0,0.1-0.1,0.2-0.1,0.4c0,0.1-0.1,0.3-0.1,0.4c0,0.1,0,0.2,0,0.2c0,0,0,0.1,0,0.1c0,0,0,0.1,0,0.1c0,0.2,0,0.3,0.1,0.5
				c0.1,0.3,0.2,0.6,0.4,0.9c0.1,0.3,0.3,0.5,0.4,0.7c0.1,0.2,0.3,0.3,0.4,0.4c0.1,0.1,0.2,0.2,0.2,0.2l0,0c0,0,0-0.1-0.1-0.2
				c-0.1-0.1-0.2-0.3-0.3-0.5S18,11.2,17.9,11c-0.1-0.3-0.2-0.5-0.3-0.8c0-0.1,0-0.3,0-0.4c0,0,0-0.1,0-0.1c0,0,0-0.1,0-0.1
				c0-0.1,0-0.1,0-0.2c0-0.1,0-0.3,0.1-0.4c0-0.1,0-0.2,0.1-0.4c0,0,0,0,0-0.1c0,0,0,0,0,0c0,0,0,0,0,0c0.1,0,0.1,0.1,0.2,0.2
				c0.1,0.1,0.2,0.2,0.3,0.3c0.2,0.2,0.3,0.5,0.5,0.8c0.2,0.3,0.4,0.6,0.6,0.9c0.2,0.3,0.5,0.5,0.8,0.7c0.1,0.1,0.3,0.2,0.4,0.3
				c0.1,0.1,0.3,0.2,0.4,0.3C21.4,12.1,21.7,12.3,21.7,12.4z"/>
			<path id="XMLID_39706_" class="st1" d="M26.2,8.6c-1.3-3-4.6-4.8-6.5-4.2c-0.2,0.1-0.4,0.1-0.6,0.2c-1.2,0.3-1.5,0.4-1.8,1.2
				c-0.3,0.8-0.1,1.2,0,1.4C17.2,7.1,17.1,7,17,6.9c-0.6-0.3-1.7-0.6-2.4-0.2c-0.5,0.3-1.2,0.7-0.9,1.6c0.3,0.6,0.7,1.4,1.1,1.7
				c0.1,0.1,0.3,0.2,0.4,0.3c0.2,0.2,0.3,0.2,0.4,0.4c0.1,0.4,0.4,1.5,1.3,2c0.8,0.5,2.1,0.4,2.9,0.4c0.1,0,0.2,0,0.2,0
				c0.2,0,0.4,0,0.5,0c0.5-0.1,0.8-0.1,1.3,0.4c0.6,0.7,1.7,1.3,2.2,1.7c0.1,0.1,0.2,0.1,0.2,0.1c0.1,0.1,0.1,0.1,0.2,0.2
				c0.1,0.1,0.2,0.2,0.4,0.2c0,0,0,0,0.1,0c0.1,0,0.2-0.1,0.2-0.2C25.5,14.9,27.4,11.4,26.2,8.6z M24.8,15.3
				C24.7,15.3,24.7,15.3,24.8,15.3c0,0-0.1,0-0.1-0.1c-0.1-0.1-0.1-0.1-0.3-0.2c-0.1,0-0.1-0.1-0.2-0.2c-0.5-0.3-1.5-1-2.1-1.6
				c-0.6-0.7-1.1-0.6-1.6-0.5c-0.2,0-0.3,0-0.5,0c-0.1,0-0.2,0-0.2,0c-0.8,0-2,0.1-2.7-0.3C16.3,12,16,11,16,10.7
				c-0.1-0.3-0.3-0.5-0.5-0.7C15.3,10,15.2,9.9,15,9.8c-0.3-0.3-0.8-1.1-1-1.6c-0.2-0.4,0-0.6,0.7-1.1c0.1,0,0.1-0.1,0.2-0.1
				c0.4-0.1,1.1,0,1.9,0.3c0.3,0.1,0.5,0.6,0.5,0.8c0,0-0.1,0-0.1,0c-0.1,0-0.3,0-0.5,0c-0.1,0-0.2,0-0.3,0.1
				c-0.1,0-0.2,0.1-0.3,0.1c-0.2,0.1-0.3,0.3-0.4,0.5c0,0.1-0.1,0.2-0.1,0.2c0,0.1,0,0.2,0,0.2c0,0.1,0,0.1,0,0.2c0,0.1,0,0.1,0,0.1
				c0,0.1,0,0.1,0,0.1l0,0c0,0,0,0,0-0.1c0,0,0-0.1,0-0.1c0-0.1,0-0.1,0-0.2c0-0.1,0-0.1,0-0.2c0-0.1,0-0.2,0.1-0.2
				c0.1-0.2,0.2-0.3,0.3-0.4c0.1,0,0.2-0.1,0.2-0.1c0.1,0,0.2-0.1,0.3-0.1c0.2,0,0.3-0.1,0.5-0.1c0.1,0,0.1,0,0.2,0
				c0,0.1,0.1,0.2,0.1,0.2c0,0,0,0,0,0c0,0.1-0.1,0.2-0.1,0.4c0,0.1-0.1,0.3-0.1,0.4c0,0.1,0,0.2,0,0.2c0,0,0,0.1,0,0.1
				c0,0,0,0.1,0,0.1c0,0.2,0,0.3,0.1,0.5c0.1,0.3,0.2,0.6,0.4,0.9c0.1,0.3,0.3,0.5,0.4,0.7c0.1,0.2,0.3,0.3,0.4,0.4
				c0.1,0.1,0.2,0.2,0.2,0.2l0,0c0,0,0-0.1-0.1-0.2c-0.1-0.1-0.2-0.3-0.3-0.5c-0.1-0.2-0.2-0.4-0.4-0.7c-0.1-0.3-0.2-0.5-0.3-0.8
				c0-0.1,0-0.3,0-0.4c0,0,0-0.1,0-0.1c0,0,0-0.1,0-0.1c0-0.1,0-0.1,0-0.2c0-0.1,0-0.3,0.1-0.4c0-0.1,0-0.2,0.1-0.4c0,0,0,0,0-0.1
				c0,0,0,0,0,0c0,0,0,0,0,0c0.1,0,0.1,0.1,0.2,0.2c0.1,0.1,0.2,0.2,0.3,0.3c0.2,0.2,0.3,0.5,0.5,0.8c0.2,0.3,0.4,0.6,0.6,0.9
				c0.2,0.3,0.5,0.5,0.8,0.7c0.1,0.1,0.3,0.2,0.4,0.3c0.1,0.1,0.3,0.2,0.4,0.3c0.4,0.3,0.7,0.5,0.7,0.6c0,0-0.3-0.3-0.7-0.6
				c-0.2-0.2-0.5-0.4-0.7-0.6c-0.3-0.2-0.5-0.5-0.8-0.7c-0.2-0.3-0.4-0.6-0.6-0.9c-0.2-0.3-0.3-0.6-0.5-0.8
				c-0.1-0.1-0.2-0.2-0.3-0.3c0,0-0.1-0.1-0.1-0.1c0,0,0.1,0.1,0.1,0.1c0.1,0.1,0.2,0.2,0.4,0.3C18.6,8.9,18.8,9,19,9.1
				c0.4,0.3,0.8,0.6,1.2,0.9c0.2,0.2,0.5,0.3,0.7,0.5c0.1,0.1,0.2,0.2,0.3,0.3l0.2,0.1l0.2,0.1c0.2,0.2,0.4,0.4,0.7,0.6
				c0.1,0.1,0.2,0.2,0.3,0.3c0.1,0.1,0.2,0.2,0.3,0.3c0.1,0.1,0.2,0.2,0.3,0.3c0.1,0.1,0.2,0.2,0.2,0.3c0.2,0.2,0.3,0.4,0.4,0.6
				c0.3,0.4,0.4,0.7,0.6,0.9c0.1,0.1,0.1,0.2,0.1,0.3c0,0.1,0,0.1,0,0.1l0,0c0,0,0,0,0-0.1c0-0.1-0.1-0.2-0.1-0.3
				c-0.1-0.2-0.3-0.6-0.5-0.9c-0.1-0.2-0.2-0.4-0.4-0.6c-0.1-0.2-0.3-0.4-0.5-0.6c-0.1-0.1-0.2-0.2-0.3-0.3
				c-0.1-0.1-0.2-0.2-0.3-0.3c-0.2-0.2-0.4-0.4-0.6-0.6l-0.2-0.2l-0.2-0.1c-0.1-0.1-0.2-0.2-0.3-0.3c-0.2-0.2-0.5-0.4-0.7-0.5
				c-0.2-0.2-0.4-0.3-0.7-0.4c-0.2-0.1-0.4-0.3-0.6-0.4c-0.2-0.1-0.4-0.2-0.5-0.3c-0.2-0.1-0.3-0.2-0.4-0.2
				c-0.1-0.1-0.2-0.1-0.3-0.1l0,0c0,0,0,0,0,0c0,0,0.1,0,0.2,0c0.2,0,0.5,0.1,0.9,0.2c0.2,0,0.4,0.1,0.6,0.1
				c0.2,0.1,0.4,0.1,0.7,0.2c0.1,0,0.2,0.1,0.3,0.1c0.1,0,0.2,0.1,0.3,0.1c0.2,0.1,0.5,0.2,0.7,0.3c0.2,0.1,0.4,0.2,0.7,0.4
				c0.2,0.1,0.4,0.2,0.6,0.4c0.2,0.1,0.4,0.3,0.6,0.4c0.2,0.1,0.3,0.3,0.5,0.4c0,0,0.1,0.1,0.1,0.1c0,0,0.1,0.1,0.1,0.1
				c0.1,0.1,0.1,0.1,0.2,0.2c0.1,0.1,0.2,0.2,0.2,0.3c0.1,0.1,0.1,0.2,0.1,0.2c0,0,0,0.1,0,0.1c0,0,0,0,0-0.1c0-0.1-0.1-0.1-0.1-0.2
				c-0.1-0.1-0.1-0.2-0.2-0.3c0-0.1-0.1-0.1-0.2-0.2c0,0-0.1-0.1-0.1-0.1c0,0-0.1-0.1-0.1-0.1c-0.1-0.1-0.3-0.3-0.5-0.4
				c-0.2-0.1-0.4-0.3-0.6-0.4c-0.2-0.1-0.4-0.3-0.6-0.4c-0.2-0.1-0.4-0.3-0.7-0.4C21.4,9.2,21.2,9.1,21,9c-0.1-0.1-0.2-0.1-0.3-0.2
				c-0.1,0-0.2-0.1-0.3-0.1c-0.2-0.1-0.4-0.1-0.7-0.2c-0.2-0.1-0.4-0.1-0.6-0.1c-0.4-0.1-0.7-0.1-0.9-0.2c-0.1,0-0.1,0-0.1,0
				c0,0,0,0,0,0c0,0,0,0,0-0.1c0.2-0.1,0.5-0.1,0.9-0.2c0.2,0,0.4,0,0.6,0c0.2,0,0.5,0,0.7,0c0.1,0,0.1,0,0.2,0c0.1,0,0.1,0,0.2,0
				c0.1,0,0.3,0,0.4,0.1c0.3,0,0.5,0.1,0.8,0.2c0.5,0.1,1,0.3,1.5,0.5c0.5,0.2,0.9,0.4,1.3,0.6c0.4,0.2,0.7,0.4,0.8,0.5
				c0.1,0.1,0.2,0.1,0.2,0.2c0,0,0.1,0.1,0.1,0.1l0,0c0,0,0,0-0.1-0.1c0,0-0.1-0.1-0.2-0.2c-0.2-0.2-0.5-0.4-0.8-0.6
				c-0.4-0.2-0.8-0.4-1.3-0.7c-0.5-0.2-1-0.4-1.5-0.6c-0.3-0.1-0.5-0.2-0.8-0.2c-0.1,0-0.3-0.1-0.4-0.1c-0.1,0-0.1,0-0.2,0
				c-0.1,0-0.1,0-0.2,0c-0.3,0-0.5,0-0.8,0c-0.2,0-0.5,0.1-0.7,0.1c-0.4,0.1-0.7,0.2-0.9,0.3c0-0.1,0-0.1,0-0.2
				c0.1-0.1,0.2-0.3,0.3-0.5c0.1-0.1,0.2-0.2,0.3-0.3c0.1-0.1,0.2-0.2,0.3-0.3c0.1,0,0.1-0.1,0.2-0.1c0.1,0,0.1-0.1,0.2-0.1
				c0.1-0.1,0.3-0.1,0.4-0.2c0.3-0.1,0.6-0.2,0.9-0.2C20.9,6,21.2,6,21.4,6c0.2,0,0.4,0,0.6-0.1c0.1,0,0.2,0,0.2,0c0,0-0.1,0-0.2,0
				c-0.1,0-0.3,0-0.6,0c-0.2,0-0.5,0.1-0.8,0.1c-0.3,0.1-0.6,0.1-0.9,0.2c-0.2,0-0.3,0.1-0.4,0.2c-0.1,0-0.1,0.1-0.2,0.1
				c-0.1,0-0.1,0.1-0.2,0.1c-0.1,0.1-0.2,0.2-0.3,0.3c-0.1,0.1-0.2,0.2-0.3,0.3c-0.1,0.1-0.2,0.2-0.3,0.3c-0.1-0.2-0.2-0.5-0.3-0.6
				c-0.1-0.2-0.3-0.4,0-1.1c0.2-0.6,0.3-0.6,1.6-1c0.2,0,0.4-0.1,0.6-0.2c1.7-0.5,4.8,1.3,6,4C27.1,11.7,24.8,15.2,24.8,15.3z"/>
		</g>
		<g id="XMLID_39692_">
			<path id="XMLID_39704_" class="st5" d="M12.9,19.8c-1.9,0-3.7-0.6-5.3-1.6c2.2-0.4,5.9-2.5,8-3.9c2.2-1.4,4.2-2.9,5.5-4.3
				c0.6-0.5,1-1,1.3-1.5c0.1,0.5,0.1,0.9,0.1,1.4c0,0.3,0,0.6,0,0.9c-0.2,1.9-0.9,3.7-2.1,5.2C18.6,18.5,15.9,19.8,12.9,19.8z"/>
			<g id="XMLID_39693_">
				<g id="XMLID_39694_">
					<path id="XMLID_39701_" class="st0" d="M8.8,15.3c-1.3,1.3-1.5,1.9-1.5,2c0,0,0.1,0,0.1,0.1c0.2,0.1,0.9,0.1,2.4-0.5
						c1.6-0.6,3.6-1.7,5.6-3c2-1.3,3.8-2.7,5-3.8c1.2-1.1,1.4-1.7,1.5-1.9c0,0,0-0.1,0-0.1c0,0-0.1,0-0.3,0c-0.3,0-1,0.1-2.2,0.6
						c-1.6,0.6-3.6,1.7-5.6,3C11.8,12.8,10,14.1,8.8,15.3z M7.8,17.1c0.2-0.3,0.5-0.7,1.3-1.5c0.1-0.1,0.3-0.3,0.4-0.4
						c0.7-0.2,1.5-0.4,2.4-0.5c0.7-0.1,1.4-0.2,2.1-0.3c-1.6,0.9-3.1,1.7-4.3,2.2C8.7,16.9,8.1,17,7.8,17.1z"/>
					<path id="XMLID_39697_" class="st1" d="M13.4,10.9c-2.7,1.8-7.7,5.5-6.8,6.9v0C6.8,17.9,6.8,18,7,18c1.8,1.5,4,2.3,6.3,2.3
						c3,0,5.8-1.3,7.6-3.7c1.2-1.5,1.9-3.3,2.1-5.2c0-0.3,0-0.6,0-0.9c0-0.8-0.1-1.7-0.3-2.5c0-0.1,0-0.3-0.1-0.4
						c-0.4-0.6-1.5-0.5-3.4,0.2C17.5,8.5,15.5,9.5,13.4,10.9z M7.3,17.3c0-0.2,0.2-0.8,1.5-2c1.2-1.2,3-2.6,5-3.8c2-1.3,4-2.3,5.6-3
						C20.6,8.1,21.3,8,21.6,8c0.2,0,0.2,0,0.3,0c0,0,0,0.1,0,0.1c0,0.2-0.3,0.8-1.5,1.9c-1.2,1.2-3,2.6-5,3.8c-2,1.3-4,2.3-5.6,3
						C8.3,17.5,7.6,17.5,7.3,17.3C7.4,17.4,7.3,17.4,7.3,17.3z M13.2,19.6c-1.8,0-3.5-0.5-4.9-1.5c2.1-0.4,5.5-2.3,7.5-3.6
						c2.1-1.3,3.9-2.7,5.2-3.9c0.5-0.5,0.9-1,1.2-1.4c0.1,0.4,0.1,0.9,0.1,1.3c0,0.1,0,0.3,0,0.4c0,0.1,0,0.3,0,0.4
						c-0.2,1.8-0.8,3.4-1.9,4.8C18.6,18.3,16,19.6,13.2,19.6z"/>
					<path id="XMLID_39696_" class="st2" d="M9,15.6c-0.8,0.7-1.1,1.2-1.3,1.5c0.3,0,0.9-0.1,1.9-0.5c1.3-0.5,2.7-1.2,4.3-2.2
						c-0.6,0.1-1.3,0.1-2.1,0.3c-0.9,0.1-1.7,0.3-2.4,0.5C9.3,15.3,9.2,15.4,9,15.6z"/>
					<path id="XMLID_39695_" class="st1" d="M19.3,15.7l0.6,0.5c1.2-1.5,1.9-3.3,2.1-5.2l-0.7-0.1C21.1,12.6,20.4,14.3,19.3,15.7z"
						/>
				</g>
			</g>
		</g>
	</g>
</g>
</svg>
